<?xml version="1.0" standalone="no"?><!DOCTYPE svg PUBLIC "-//W3C//DTD SVG 1.1//EN" "http://www.w3.org/Graphics/SVG/1.1/DTD/svg11.dtd"><svg height="1024" node-id="1" sillyvg="true" template-height="1024" template-width="1024" version="1.1" viewBox="0 0 1024 1024" width="1024" xmlns="http://www.w3.org/2000/svg" xmlns:xlink="http://www.w3.org/1999/xlink"><defs node-id="21"></defs><g node-id="53"><path d="M 0.00 0.00 L 1024.00 0.00 L 1024.00 1024.00 L 0.00 1024.00 Z" fill="#ffffff" fill-rule="nonzero" group-id="1" node-id="24" stroke="none" target-height="1024" target-width="1024" target-x="0" target-y="0"></path></g><path d="M 725.29 499.05 L 284.91 499.05 C 274.35 499.09 265.80 507.64 265.77 518.20 L 265.77 812.05 C 265.80 822.61 274.35 831.16 284.91 831.20 L 725.29 831.20 C 735.85 831.16 744.40 822.61 744.43 812.05 L 744.43 518.20 C 744.40 507.64 735.85 499.09 725.29 499.05 Z" fill="#ffffff" fill-rule="nonzero" node-id="27" stroke="none" target-height="332.15005" target-width="478.66" target-x="265.77" target-y="499.05002"></path><path d="M 736.12 502.46 L 505.12 339.55 L 274.36 502.27 C 269.01 505.81 265.79 511.79 265.77 518.20 L 505.10 686.92 L 744.43 518.20 C 744.41 511.91 741.30 506.03 736.12 502.46 Z" fill="#b3b3b3" fill-rule="nonzero" node-id="29" stroke="none" target-height="347.37" target-width="478.66" target-x="265.77" target-y="339.55"></path><path d="M 505.10 693.09 C 503.83 693.09 502.59 692.69 501.55 691.96 L 262.21 523.24 C 260.59 522.09 259.62 520.23 259.60 518.24 C 259.61 509.77 263.87 501.86 270.93 497.18 L 271.02 497.30 C 272.83 495.83 275.82 493.73 280.72 490.30 L 501.55 334.50 C 503.68 333.00 506.52 333.00 508.65 334.50 L 729.75 490.42 C 734.75 493.93 737.75 496.05 739.54 497.53 L 739.64 497.39 C 746.49 502.11 750.60 509.88 750.64 518.20 C 750.62 520.19 749.65 522.05 748.03 523.20 L 508.65 692.00 C 507.61 692.72 506.37 693.10 505.10 693.09 Z M 272.28 515.24 L 505.10 679.37 L 737.91 515.25 C 737.15 512.11 735.26 509.36 732.60 507.53 L 732.53 507.53 L 505.10 347.09 L 278.00 507.28 L 277.84 507.40 C 275.06 509.22 273.08 512.02 272.28 515.24 Z" fill="#262626" fill-rule="nonzero" node-id="31" stroke="none" target-height="360.1016" target-width="491.04" target-x="259.6" target-y="332.99893"></path><path d="M 311.83 369.93 L 698.36 369.93 C 705.15 369.93 710.66 375.44 710.66 382.23 L 710.66 769.84 C 710.66 776.63 705.15 782.14 698.36 782.14 L 311.83 782.14 C 305.04 782.14 299.53 776.63 299.53 769.84 L 299.53 382.23 C 299.53 375.44 305.04 369.93 311.83 369.93 Z" fill="#2ecc71" fill-rule="nonzero" node-id="33" stroke="none" target-height="412.21008" target-width="411.13004" target-x="299.53" target-y="369.93"></path><path d="M 698.36 788.30 L 311.83 788.30 C 301.63 788.29 293.37 780.03 293.36 769.83 L 293.36 382.22 C 293.38 372.03 301.64 363.77 311.83 363.76 L 698.36 363.76 C 708.55 363.77 716.82 372.03 716.83 382.22 L 716.83 769.83 C 716.82 780.03 708.56 788.29 698.36 788.30 Z M 311.83 376.09 C 308.45 376.10 305.71 378.84 305.70 382.22 L 305.70 769.83 C 305.71 773.21 308.45 775.95 311.83 775.96 L 698.36 775.96 C 701.74 775.95 704.48 773.21 704.49 769.83 L 704.49 382.22 C 704.48 378.84 701.74 376.10 698.36 376.09 Z" fill="#262626" fill-rule="nonzero" node-id="35" stroke="none" target-height="424.54" target-width="423.46997" target-x="293.36" target-y="363.76004"></path><path d="M 412.81 527.00 C 412.81 473.46 447.02 425.00 509.28 425.00 C 556.88 425.00 588.11 456.87 588.11 502.35 C 588.11 544.63 568.35 568.43 537.75 568.43 C 523.75 568.43 516.51 562.90 514.17 554.83 C 507.37 564.60 496.11 568.00 485.48 568.00 C 467.42 568.00 454.48 555.47 454.48 531.88 C 454.48 494.48 472.33 469.62 499.74 469.62 C 511.00 469.62 517.59 472.62 523.11 478.12 L 524.60 471.54 L 547.10 471.54 L 534.57 539.74 C 533.50 545.74 533.93 551.85 542.00 551.85 C 559.00 551.85 569.41 534.43 569.41 503.62 C 569.41 466.44 550.29 441.36 508.41 441.36 C 458.69 441.36 431.07 478.12 431.07 526.57 C 431.07 570.13 454.65 593.92 499.49 593.92 C 516.67 593.82 533.70 590.80 549.87 585.00 L 552.41 599.66 C 539.67 605.40 519.69 610.29 499.29 610.29 C 445.32 610.33 412.81 580.58 412.81 527.00 Z M 510.81 541.66 L 519.09 492.79 C 516.09 489.18 510.60 486.42 502.95 486.42 C 485.52 486.42 478.51 505.97 478.51 531.47 C 478.51 544.21 484.25 550.59 492.96 550.59 C 500.01 550.77 506.68 547.44 510.77 541.69 Z" fill="#ffffff" fill-rule="nonzero" node-id="37" stroke="none" target-height="185.33002" target-width="175.29999" target-x="412.81" target-y="425"></path><path d="M 505.10 686.92 L 265.77 518.20 L 265.77 812.05 C 265.80 822.61 274.35 831.16 284.91 831.20 L 725.29 831.20 C 735.85 831.16 744.40 822.61 744.43 812.05 L 744.43 518.20 Z" fill="#ffffff" fill-rule="nonzero" node-id="39" stroke="none" target-height="313.00006" target-width="478.66" target-x="265.77" target-y="518.2"></path><path d="M 725.29 837.36 L 284.91 837.36 C 270.94 837.35 259.61 826.02 259.60 812.05 L 259.60 518.20 C 259.61 515.90 260.90 513.80 262.94 512.75 C 264.99 511.70 267.44 511.87 269.32 513.20 L 505.10 679.37 L 740.88 513.16 C 742.76 511.83 745.21 511.66 747.26 512.71 C 749.30 513.76 750.59 515.86 750.60 518.16 L 750.60 812.05 C 750.58 826.02 739.26 837.34 725.29 837.36 Z M 271.94 530.10 L 271.94 812.05 C 271.94 819.23 277.76 825.05 284.94 825.05 L 725.29 825.05 C 732.47 825.05 738.29 819.23 738.29 812.05 L 738.29 530.10 L 508.65 692.00 C 506.52 693.50 503.68 693.50 501.55 692.00 Z" fill="#262626" fill-rule="nonzero" node-id="41" stroke="none" target-height="325.70193" target-width="490.99997" target-x="259.6" target-y="511.6581"></path><path d="M 531.15 668.55 L 479.05 668.55 L 265.77 812.05 C 265.80 822.61 274.35 831.16 284.91 831.20 L 725.29 831.20 C 735.85 831.16 744.40 822.61 744.43 812.05 Z" fill="#e6e6e6" fill-rule="nonzero" node-id="43" stroke="none" target-height="162.65009" target-width="478.66" target-x="265.77" target-y="668.55"></path><path d="M 725.29 837.36 L 284.91 837.36 C 270.94 837.35 259.61 826.02 259.60 812.05 C 259.60 810.00 260.62 808.08 262.32 806.93 L 475.60 663.43 C 476.63 662.76 477.83 662.42 479.05 662.43 L 531.15 662.43 C 532.37 662.42 533.57 662.76 534.60 663.43 L 747.88 806.93 C 749.58 808.08 750.60 810.00 750.60 812.05 C 750.58 826.02 739.26 837.34 725.29 837.36 Z M 272.29 815.09 C 273.71 820.91 278.92 825.00 284.91 825.00 L 725.29 825.00 C 731.28 824.99 736.49 820.88 737.90 815.06 L 529.27 674.72 L 480.93 674.72 Z" fill="#262626" fill-rule="nonzero" node-id="45" stroke="none" target-height="174.94324" target-width="490.99997" target-x="259.6" target-y="662.4168"></path><path d="M 573.58 281.06 C 570.17 281.06 567.41 278.30 567.41 274.89 L 567.41 171.29 C 567.41 167.88 570.17 165.12 573.58 165.12 C 576.99 165.12 579.75 167.88 579.75 171.29 L 579.75 274.89 C 579.75 278.30 576.99 281.06 573.58 281.06 Z" fill="#2ecc71" fill-rule="nonzero" node-id="47" stroke="none" target-height="115.94" target-width="12.340027" target-x="567.41" target-y="165.12"></path><path d="M 505.10 281.06 C 501.69 281.06 498.93 278.30 498.93 274.89 L 498.93 171.29 C 498.93 167.88 501.69 165.12 505.10 165.12 C 508.51 165.12 511.27 167.88 511.27 171.29 L 511.27 274.89 C 511.27 278.30 508.51 281.06 505.10 281.06 Z" fill="#f39c12" fill-rule="nonzero" node-id="49" stroke="none" target-height="115.94" target-width="12.339966" target-x="498.93" target-y="165.12"></path><path d="M 436.62 281.06 C 433.21 281.06 430.45 278.30 430.45 274.89 L 430.45 171.29 C 430.45 167.88 433.21 165.12 436.62 165.12 C 440.03 165.12 442.79 167.88 442.79 171.29 L 442.79 274.89 C 442.79 278.30 440.03 281.06 436.62 281.06 Z" fill="#3498db" fill-rule="nonzero" node-id="51" stroke="none" target-height="115.94" target-width="12.339966" target-x="430.45004" target-y="165.12"></path></svg>