<?xml version="1.0" standalone="no"?><!DOCTYPE svg PUBLIC "-//W3C//DTD SVG 1.1//EN" "http://www.w3.org/Graphics/SVG/1.1/DTD/svg11.dtd"><svg height="1024" node-id="1" sillyvg="true" template-height="1024" template-width="1024" version="1.1" viewBox="0 0 1024 1024" width="1024" xmlns="http://www.w3.org/2000/svg" xmlns:xlink="http://www.w3.org/1999/xlink"><defs node-id="24"></defs><g node-id="62"><path d="M 0.00 0.00 L 1024.00 0.00 L 1024.00 1024.00 L 0.00 1024.00 Z" fill="#ffffff" fill-rule="nonzero" group-id="1" node-id="27" stroke="none" target-height="1024" target-width="1024" target-x="0" target-y="0"></path></g><path d="M 696.53 411.31 L 279.64 411.31 C 255.06 411.31 242.32 424.06 242.32 448.64 L 242.32 744.09 C 242.32 744.09 733.86 743.54 733.86 744.09 L 733.86 448.64 C 733.86 424.06 721.11 411.31 696.53 411.31 Z" fill="#333333" fill-rule="nonzero" node-id="30" stroke="none" target-height="332.78003" target-width="491.53998" target-x="242.32002" target-y="411.31"></path><path d="M 242.32 750.38 C 240.65 750.38 239.05 749.72 237.88 748.54 C 236.70 747.36 236.04 745.76 236.04 744.09 L 236.04 448.64 C 236.04 420.52 251.52 405.03 279.64 405.03 L 696.53 405.03 C 724.65 405.03 740.14 420.52 740.14 448.64 L 740.14 744.09 C 740.11 745.86 739.35 747.53 738.03 748.72 C 736.72 749.90 734.98 750.49 733.22 750.35 C 730.40 750.24 705.70 750.13 606.42 750.13 C 460.78 750.13 242.32 750.38 242.32 750.38 Z M 279.64 417.60 C 258.46 417.60 248.64 427.46 248.64 448.60 L 248.64 737.81 C 295.64 737.75 592.86 737.44 697.50 737.62 C 708.89 737.62 718.00 737.62 724.26 737.70 L 727.62 737.70 L 727.62 448.64 C 727.62 427.46 717.75 417.64 696.57 417.64 Z" fill="#262626" fill-rule="nonzero" node-id="32" stroke="none" target-height="345.46384" target-width="504.10266" target-x="236.03734" target-y="405.03"></path><path d="M 681.08 453.64 L 295.08 453.64 C 290.02 453.66 285.93 457.75 285.91 462.81 L 285.91 692.62 C 285.93 697.68 290.02 701.77 295.08 701.78 L 681.08 701.78 C 686.13 701.77 690.23 697.67 690.24 692.62 L 690.24 462.81 C 690.23 457.75 686.14 453.66 681.08 453.64 Z" fill="#3498db" fill-rule="nonzero" node-id="34" stroke="none" target-height="248.14001" target-width="404.33" target-x="285.91" target-y="453.64"></path><path d="M 233.32 744.09 L 742.85 744.09 C 747.58 744.09 752.11 745.97 755.46 749.31 C 758.80 752.66 760.68 757.19 760.68 761.92 L 760.68 786.11 C 760.68 790.84 758.80 795.37 755.46 798.72 C 752.11 802.06 747.58 803.94 742.85 803.94 L 233.32 803.94 C 228.59 803.94 224.06 802.06 220.71 798.72 C 217.37 795.37 215.49 790.84 215.49 786.11 L 215.49 761.92 C 215.49 757.19 217.37 752.66 220.71 749.31 C 224.06 745.97 228.59 744.09 233.32 744.09 Z" fill="#ffffff" fill-rule="nonzero" node-id="36" stroke="none" target-height="59.849976" target-width="545.18994" target-x="215.49" target-y="744.09"></path><path d="M 742.86 810.22 L 233.32 810.22 C 217.99 810.22 209.21 801.44 209.21 786.12 L 209.21 761.92 C 209.21 746.60 217.99 737.81 233.32 737.81 L 742.86 737.81 C 758.18 737.81 766.96 746.60 766.96 761.92 L 766.96 786.12 C 767.00 801.44 758.18 810.22 742.86 810.22 Z M 233.32 750.38 C 225.01 750.38 221.77 753.61 221.77 761.92 L 221.77 786.12 C 221.77 794.42 225.01 797.66 233.32 797.66 L 742.86 797.66 C 751.16 797.66 754.40 794.42 754.40 786.12 L 754.40 761.92 C 754.40 753.61 751.16 750.38 742.86 750.38 Z" fill="#262626" fill-rule="nonzero" node-id="38" stroke="none" target-height="72.410034" target-width="557.79" target-x="209.21" target-y="737.81"></path><path d="M 258.94 774.00 C 258.94 778.41 256.29 782.38 252.22 784.06 C 248.14 785.75 243.46 784.81 240.35 781.70 C 237.23 778.58 236.30 773.89 237.99 769.83 C 239.68 765.76 243.65 763.11 248.06 763.11 C 254.07 763.12 258.94 767.99 258.94 774.00 Z" fill="#3498db" fill-rule="nonzero" node-id="40" stroke="none" target-height="22.641052" target-width="22.636887" target-x="236.30312" target-y="763.10596"></path><path d="M 290.76 774.00 C 290.76 780.01 285.88 784.89 279.87 784.89 C 273.86 784.89 268.98 780.01 268.98 774.00 C 268.98 767.99 273.86 763.11 279.87 763.11 C 285.88 763.11 290.76 767.99 290.76 774.00 Z" fill="#f39c12" fill-rule="nonzero" node-id="42" stroke="none" target-height="21.78009" target-width="21.779999" target-x="268.98" target-y="763.1099"></path><path d="M 322.57 774.00 C 322.57 778.41 319.92 782.38 315.85 784.06 C 311.77 785.75 307.09 784.81 303.98 781.70 C 300.86 778.58 299.93 773.89 301.62 769.83 C 303.31 765.76 307.28 763.11 311.69 763.11 C 317.70 763.12 322.57 767.99 322.57 774.00 Z" fill="#2ecc71" fill-rule="nonzero" node-id="44" stroke="none" target-height="22.641052" target-width="22.636902" target-x="299.9331" target-y="763.10596"></path><path d="M 479.11 561.82 L 472.74 555.45 C 470.55 552.84 467.08 551.70 463.77 552.48 C 460.46 553.27 457.88 555.85 457.09 559.16 C 456.31 562.47 457.45 565.94 460.06 568.13 L 481.74 589.81 C 482.15 590.23 482.61 590.60 483.10 590.93 C 483.32 591.06 483.55 591.19 483.79 591.30 C 484.07 591.47 484.36 591.62 484.66 591.75 C 484.94 591.87 485.26 591.94 485.56 592.04 C 485.86 592.14 486.06 592.21 486.33 592.27 C 487.49 592.50 488.68 592.50 489.84 592.27 C 490.11 592.21 490.34 592.11 490.60 592.04 C 490.86 591.97 491.21 591.87 491.51 591.75 C 491.81 591.63 492.09 591.46 492.38 591.31 C 492.67 591.16 492.84 591.08 493.06 590.93 C 493.55 590.60 494.01 590.23 494.43 589.81 L 516.10 568.13 C 518.71 565.94 519.85 562.47 519.07 559.16 C 518.28 555.85 515.70 553.27 512.39 552.48 C 509.08 551.70 505.61 552.84 503.42 555.45 L 497.00 561.82 L 497.00 525.70 C 497.30 522.31 495.66 519.04 492.76 517.25 C 489.86 515.46 486.21 515.46 483.31 517.25 C 480.41 519.04 478.77 522.31 479.07 525.70 Z" fill="#ffffff" fill-rule="nonzero" node-id="46" stroke="none" target-height="77.04047" target-width="63.547882" target-x="456.30606" target-y="515.4599"></path><path d="M 563.14 643.83 L 416.00 643.83 C 411.03 643.83 407.00 639.80 407.00 634.83 L 407.00 561.27 C 407.35 556.57 411.26 552.94 415.98 552.94 C 420.69 552.94 424.60 556.57 424.95 561.27 L 424.95 625.89 L 554.17 625.89 L 554.17 561.27 C 554.55 556.60 558.45 553.00 563.14 553.00 C 567.83 553.00 571.73 556.60 572.11 561.27 L 572.11 634.86 C 572.09 639.81 568.09 643.81 563.14 643.83 Z" fill="#ffffff" fill-rule="nonzero" node-id="48" stroke="none" target-height="90.88965" target-width="165.10999" target-x="407" target-y="552.94037"></path><path d="M 658.64 381.79 C 653.82 335.61 631.19 293.42 584.34 271.15 C 523.97 242.46 446.80 294.15 463.69 362.93 C 470.38 390.17 488.69 411.51 515.56 420.16 C 547.71 430.49 586.31 408.08 616.56 425.16 C 642.16 439.65 647.83 476.41 634.90 501.23 C 653.49 465.45 662.85 422.10 658.64 381.79 Z" fill="#f39c12" fill-rule="nonzero" node-id="50" stroke="none" target-height="258.77" target-width="216.04999" target-x="446.8" target-y="242.46002"></path><path d="M 542.82 364.82 C 540.78 364.83 538.82 364.03 537.37 362.59 C 535.92 361.16 535.10 359.20 535.09 357.16 L 535.09 351.86 C 535.09 350.35 535.41 341.67 546.67 334.76 C 547.67 334.16 552.47 330.95 551.87 326.60 C 551.06 320.60 546.26 319.77 543.47 319.79 C 539.47 319.79 536.27 322.56 535.63 325.10 C 534.59 329.22 530.41 331.72 526.29 330.68 C 522.17 329.64 519.67 325.46 520.71 321.34 C 523.17 311.58 532.71 304.45 543.39 304.40 C 553.84 304.40 565.22 310.55 567.12 324.52 C 568.58 335.22 561.67 343.60 554.72 347.86 C 551.37 349.92 550.62 351.75 550.48 352.20 L 550.48 357.08 C 550.49 359.12 549.69 361.08 548.25 362.54 C 546.82 363.99 544.86 364.81 542.82 364.82 Z" fill="#ffffff" fill-rule="nonzero" node-id="52" stroke="none" target-height="60.430634" target-width="48.908325" target-x="519.6717" target-y="304.4"></path><path d="M 550.92 380.32 C 550.94 384.79 547.34 388.43 542.87 388.45 C 538.40 388.47 534.76 384.87 534.74 380.40 C 534.72 375.93 538.32 372.29 542.79 372.27 C 547.26 372.25 550.89 375.85 550.92 380.32 Z" fill="#ffffff" fill-rule="nonzero" node-id="54" stroke="none" target-height="16.218506" target-width="16.223938" target-x="534.7181" target-y="372.25336"></path><path d="M 713.73 220.31 C 695.09 243.46 687.38 277.31 686.62 305.36 C 686.23 319.43 690.53 373.52 690.24 382.15 C 690.55 373.07 700.39 359.03 706.38 351.61 C 721.27 333.19 747.72 332.84 768.79 327.01 C 791.32 320.77 813.30 309.47 825.16 288.44 C 837.90 265.86 838.96 236.61 821.75 215.68 C 793.35 181.14 740.42 187.17 713.73 220.31 Z" fill="#2ecc71" fill-rule="nonzero" node-id="56" stroke="none" target-height="201.00998" target-width="152.73004" target-x="686.23" target-y="181.14001"></path><path d="M 771.69 283.57 C 771.70 286.62 769.24 289.10 766.19 289.11 C 763.15 289.12 760.66 286.66 760.65 283.62 C 760.64 280.57 763.09 278.09 766.14 278.07 C 767.61 278.06 769.01 278.64 770.06 279.67 C 771.10 280.70 771.68 282.10 771.69 283.57 Z" fill="#ffffff" fill-rule="nonzero" node-id="58" stroke="none" target-height="11.06073" target-width="11.065613" target-x="760.6354" target-y="278.062"></path><path d="M 760.65 234.74 C 760.65 231.69 763.12 229.22 766.17 229.22 L 766.17 229.22 C 769.22 229.22 771.69 231.69 771.69 234.74 L 771.69 264.15 C 771.69 267.20 769.22 269.67 766.17 269.67 L 766.17 269.67 C 763.12 269.67 760.65 267.20 760.65 264.15 Z" fill="#ffffff" fill-rule="nonzero" node-id="60" stroke="none" target-height="40.450012" target-width="11.039917" target-x="760.6501" target-y="229.22"></path></svg>