<svg t="1750928819316" class="icon" viewBox="0 0 1024 1024" version="1.1" xmlns="http://www.w3.org/2000/svg" p-id="14241" width="256" height="256"><path d="M563.2 512a38.4 38.4 0 0 0 0 76.8h166.4a38.4 38.4 0 0 0 0-76.8H563.2zM308.736 254.464a38.4 38.4 0 0 0-54.272 54.272L380.928 435.2l-126.464 126.464a38.4 38.4 0 1 0 54.272 54.272l153.6-153.6a38.4 38.4 0 0 0 0-54.272l-153.6-153.6z" fill="#000000" p-id="14242"></path><path d="M89.6 678.4A115.2 115.2 0 0 0 204.8 793.6h614.4a115.2 115.2 0 0 0 115.2-115.2V179.2A115.2 115.2 0 0 0 819.2 64H204.8A115.2 115.2 0 0 0 89.6 179.2v499.2z m76.8 0V179.2A38.4 38.4 0 0 1 204.8 140.8h614.4a38.4 38.4 0 0 1 38.4 38.4v499.2A38.4 38.4 0 0 1 819.2 716.8H204.8a38.4 38.4 0 0 1-38.4-38.4zM307.2 883.2a38.4 38.4 0 0 0 0 76.8h409.6a38.4 38.4 0 0 0 0-76.8H307.2z" fill="#000000" p-id="14243"></path></svg>