<?xml version="1.0" standalone="no"?><!DOCTYPE svg PUBLIC "-//W3C//DTD SVG 1.1//EN" "http://www.w3.org/Graphics/SVG/1.1/DTD/svg11.dtd"><svg height="1024" node-id="1" sillyvg="true" template-height="1024" template-width="1024" version="1.1" viewBox="0 0 1024 1024" width="1024" xmlns="http://www.w3.org/2000/svg" xmlns:xlink="http://www.w3.org/1999/xlink"><defs node-id="38"></defs><g node-id="104"><path d="M 0.00 0.00 L 1024.00 0.00 L 1024.00 1024.00 L 0.00 1024.00 Z" fill="#ffffff" fill-rule="nonzero" group-id="1" node-id="41" stroke="none" target-height="1024" target-width="1024" target-x="0" target-y="0"></path></g><path d="M 472.32 279.39 L 338.59 279.39 C 325.62 279.39 315.11 289.90 315.11 302.87 L 315.11 389.76 C 315.11 402.73 325.62 413.24 338.59 413.24 L 374.93 413.24 L 495.80 335.00 L 495.80 302.87 C 495.80 289.90 485.29 279.39 472.32 279.39 Z" fill="#3498db" fill-rule="nonzero" node-id="44" stroke="none" target-height="133.84998" target-width="180.69" target-x="315.11" target-y="279.39"></path><path d="M 376.54 418.68 L 338.54 418.68 C 322.59 418.64 309.66 405.71 309.62 389.76 L 309.62 302.87 C 309.69 286.92 322.64 274.02 338.59 274.00 L 472.32 274.00 C 488.27 274.04 501.20 286.97 501.24 302.92 L 501.24 337.97 Z M 338.54 284.84 C 328.61 284.87 320.57 292.91 320.54 302.84 L 320.54 389.73 C 320.57 399.66 328.61 407.70 338.54 407.73 L 373.27 407.73 L 490.27 331.93 L 490.27 302.87 C 490.24 292.94 482.20 284.90 472.27 284.87 Z" fill="#262626" fill-rule="nonzero" node-id="46" stroke="none" target-height="144.68002" target-width="191.61996" target-x="309.62" target-y="274"></path><path d="M 604.09 335.00 L 398.41 335.00 C 385.44 335.00 374.93 345.51 374.93 358.48 L 374.93 481.32 C 374.93 487.55 377.40 493.52 381.81 497.92 C 386.21 502.32 392.18 504.79 398.41 504.79 L 534.56 504.79 L 541.91 551.86 L 581.38 504.79 L 604.09 504.79 C 617.06 504.80 627.57 494.29 627.58 481.32 L 627.58 358.44 C 627.55 345.49 617.04 335.00 604.09 335.00 Z" fill="#f39c12" fill-rule="nonzero" node-id="48" stroke="none" target-height="216.86002" target-width="252.65002" target-x="374.93" target-y="334.99997"></path><path d="M 541.91 557.30 C 541.42 557.30 540.93 557.24 540.46 557.11 C 538.40 556.53 536.87 554.81 536.54 552.70 L 529.90 510.23 L 398.41 510.23 C 382.46 510.19 369.54 497.27 369.49 481.32 L 369.49 358.44 C 369.53 342.49 382.46 329.56 398.41 329.52 L 604.09 329.52 C 620.04 329.57 632.96 342.49 633.00 358.44 L 633.00 481.32 C 632.95 497.27 620.02 510.19 604.07 510.23 L 583.92 510.23 L 546.08 555.36 C 545.05 556.59 543.52 557.30 541.91 557.30 Z M 398.41 340.40 C 388.48 340.43 380.44 348.47 380.41 358.40 L 380.41 481.32 C 380.44 491.25 388.48 499.29 398.41 499.32 L 534.56 499.32 C 537.24 499.32 539.53 501.27 539.94 503.92 L 545.44 539.15 L 577.21 501.26 C 578.25 500.03 579.77 499.32 581.38 499.32 L 604.09 499.32 C 614.02 499.29 622.06 491.25 622.09 481.32 L 622.09 358.44 C 622.06 348.51 614.02 340.47 604.09 340.44 Z" fill="#262626" fill-rule="nonzero" node-id="50" stroke="none" target-height="227.7844" target-width="263.51" target-x="369.49" target-y="329.52"></path><path d="M 452.87 419.73 C 452.87 424.55 449.97 428.89 445.52 430.73 C 441.07 432.57 435.95 431.54 432.54 428.13 C 429.14 424.72 428.13 419.60 429.98 415.16 C 431.84 410.71 436.18 407.82 441.00 407.83 C 447.56 407.84 452.88 413.17 452.87 419.73 Z" fill="#ffffff" fill-rule="nonzero" node-id="52" stroke="none" target-height="24.749268" target-width="24.742401" target-x="428.13312" target-y="407.81787"></path><path d="M 513.15 419.73 C 513.15 426.30 507.82 431.63 501.25 431.63 C 494.68 431.63 489.35 426.30 489.35 419.73 C 489.35 413.16 494.68 407.83 501.25 407.83 C 504.41 407.83 507.44 409.08 509.67 411.31 C 511.90 413.54 513.15 416.57 513.15 419.73 Z" fill="#ffffff" fill-rule="nonzero" node-id="54" stroke="none" target-height="23.802673" target-width="23.802643" target-x="489.35" target-y="407.82733"></path><path d="M 573.43 419.73 C 573.43 426.30 568.10 431.63 561.53 431.63 C 554.96 431.63 549.63 426.30 549.63 419.73 C 549.63 413.16 554.96 407.83 561.53 407.83 C 568.10 407.83 573.43 413.16 573.43 419.73 Z" fill="#ffffff" fill-rule="nonzero" node-id="56" stroke="none" target-height="23.800018" target-width="23.799988" target-x="549.63" target-y="407.83"></path><path d="M 478.61 192.77 L 651.19 192.77 C 662.07 192.78 670.89 201.60 670.89 212.48 L 670.89 315.57 C 670.89 326.45 662.07 335.27 651.19 335.27 L 537.00 335.27 L 530.83 374.76 L 497.72 335.27 L 478.61 335.27 C 467.73 335.27 458.91 326.45 458.91 315.57 L 458.91 212.48 C 458.91 201.60 467.73 192.78 478.61 192.77 Z" fill="#2ecc71" fill-rule="nonzero" node-id="58" stroke="none" target-height="181.99" target-width="211.97998" target-x="458.91003" target-y="192.77"></path><path d="M 530.78 380.20 C 529.17 380.20 527.65 379.49 526.61 378.26 L 495.13 340.71 L 478.61 340.71 C 464.73 340.69 453.49 329.45 453.47 315.57 L 453.47 212.48 C 453.48 198.60 464.73 187.35 478.61 187.33 L 651.19 187.33 C 665.07 187.35 676.32 198.60 676.33 212.48 L 676.33 315.57 C 676.31 329.45 665.07 340.69 651.19 340.71 L 541.61 340.71 L 536.16 375.60 C 535.83 377.71 534.30 379.43 532.24 380.01 C 531.76 380.14 531.27 380.20 530.78 380.20 Z M 478.61 198.20 C 470.74 198.21 464.36 204.59 464.35 212.46 L 464.35 315.57 C 464.36 323.44 470.74 329.82 478.61 329.83 L 497.67 329.83 C 499.28 329.83 500.80 330.54 501.84 331.77 L 527.26 362.08 L 531.58 334.43 C 531.99 331.78 534.27 329.83 536.95 329.83 L 651.19 329.83 C 659.06 329.82 665.44 323.44 665.45 315.57 L 665.45 212.48 C 665.44 204.61 659.06 198.23 651.19 198.22 Z" fill="#262626" fill-rule="nonzero" node-id="60" stroke="none" target-height="192.87154" target-width="222.86002" target-x="453.47" target-y="187.33"></path><path d="M 605.49 263.90 C 605.49 269.42 609.97 273.90 615.49 273.90 C 621.01 273.90 625.49 269.42 625.49 263.90 C 625.49 258.38 621.01 253.90 615.49 253.90 C 609.97 253.90 605.49 258.38 605.49 263.90 Z" fill="#ffffff" fill-rule="nonzero" node-id="62" stroke="none" target-height="20" target-width="20" target-x="605.49" target-y="253.9"></path><path d="M 554.92 263.90 C 554.92 269.42 559.40 273.90 564.92 273.90 C 570.44 273.90 574.92 269.42 574.92 263.90 C 574.92 258.38 570.44 253.90 564.92 253.90 C 559.40 253.90 554.92 258.38 554.92 263.90 Z" fill="#ffffff" fill-rule="nonzero" node-id="64" stroke="none" target-height="20" target-width="20" target-x="554.92" target-y="253.9"></path><path d="M 504.34 263.90 C 504.34 269.42 508.82 273.90 514.34 273.90 C 519.86 273.90 524.34 269.42 524.34 263.90 C 524.34 258.38 519.86 253.90 514.34 253.90 C 508.82 253.90 504.34 258.38 504.34 263.90 Z" fill="#ffffff" fill-rule="nonzero" node-id="66" stroke="none" target-height="20" target-width="20.00003" target-x="504.34" target-y="253.9"></path><path d="M 338.40 720.56 C 304.81 720.56 277.58 747.79 277.58 781.38 L 277.58 834.78 L 399.21 834.78 L 399.21 781.38 C 399.21 765.25 392.81 749.78 381.40 738.37 C 370.00 726.97 354.53 720.56 338.40 720.56 Z" fill="#333333" fill-rule="nonzero" node-id="68" stroke="none" target-height="114.22009" target-width="121.63269" target-x="277.58" target-y="720.55994"></path><path d="M 344.20 728.47 L 332.58 728.47 L 324.22 782.74 L 338.39 799.04 L 352.57 782.74 L 344.20 728.47 Z" fill="#ffffff" fill-rule="nonzero" node-id="70" stroke="none" target-height="70.57001" target-width="28.350006" target-x="324.22" target-y="728.47"></path><path d="M 349.62 720.56 L 327.17 720.56 L 331.09 733.22 L 345.69 733.22 L 349.62 720.56 Z" fill="#ffffff" fill-rule="nonzero" node-id="72" stroke="none" target-height="12.660034" target-width="22.449951" target-x="327.17" target-y="720.55994"></path><path d="M 399.21 840.22 L 277.58 840.22 C 276.14 840.22 274.75 839.65 273.73 838.63 C 272.70 837.61 272.13 836.22 272.13 834.78 L 272.13 781.38 C 272.58 745.10 302.11 715.92 338.39 715.92 C 374.68 715.92 404.21 745.10 404.66 781.38 L 404.66 834.78 C 404.66 836.22 404.09 837.61 403.06 838.63 C 402.04 839.65 400.65 840.22 399.21 840.22 Z M 283.00 829.34 L 393.77 829.34 L 393.77 781.34 C 393.36 751.05 368.69 726.70 338.39 726.70 C 308.10 726.70 283.43 751.05 283.02 781.34 Z" fill="#262626" fill-rule="nonzero" node-id="74" stroke="none" target-height="124.29852" target-width="132.53003" target-x="272.13" target-y="715.92413"></path><path d="M 295.91 645.43 C 292.47 643.10 290.51 639.14 290.74 635.00 L 285.18 631.25 L 258.90 670.25 L 346.90 729.61 L 373.25 690.53 L 367.69 686.78 C 362.89 689.02 357.18 687.78 353.73 683.75 C 350.29 679.72 349.96 673.89 352.92 669.49 C 355.88 665.09 361.41 663.21 366.44 664.89 C 371.47 666.57 374.76 671.40 374.49 676.69 L 380.06 680.45 L 406.26 641.59 L 367.26 615.31 L 370.61 610.31 C 375.91 610.59 380.75 607.30 382.43 602.27 C 384.12 597.23 382.24 591.69 377.84 588.73 C 373.44 585.76 367.60 586.09 363.56 589.54 C 359.53 592.98 358.29 598.70 360.53 603.51 L 357.18 608.51 L 318.18 582.24 L 291.90 621.24 L 297.46 624.99 C 302.63 622.59 308.77 624.22 312.06 628.87 C 315.35 633.53 314.85 639.86 310.87 643.94 C 306.89 648.01 300.57 648.66 295.84 645.48 Z" fill="#3498db" fill-rule="nonzero" node-id="76" stroke="none" target-height="147.37" target-width="147.36002" target-x="258.9" target-y="582.24"></path><path d="M 348.38 737.16 L 251.38 671.71 L 283.75 623.71 L 296.37 632.22 L 296.21 635.29 C 296.08 637.52 297.14 639.66 299.00 640.91 C 301.93 642.78 305.82 642.02 307.83 639.18 C 309.79 636.27 309.03 632.32 306.12 630.35 C 304.26 629.11 301.89 628.93 299.86 629.87 L 297.00 631.17 L 284.38 622.66 L 316.74 574.66 L 354.01 599.79 C 353.74 595.93 354.79 592.09 357.00 588.91 C 361.23 582.65 369.04 579.87 376.28 582.05 C 383.51 584.24 388.48 590.87 388.54 598.43 C 388.60 605.99 383.74 612.70 376.54 615.00 L 413.82 640.14 L 381.53 688.00 L 368.91 679.49 L 369.06 676.42 C 369.19 674.19 368.13 672.06 366.28 670.81 C 363.35 668.93 359.46 669.69 357.44 672.53 C 355.49 675.45 356.26 679.39 359.16 681.36 C 361.02 682.59 363.38 682.78 365.41 681.84 L 368.20 680.55 L 380.82 689.07 Z M 266.45 668.77 L 345.45 722.05 L 364.92 693.17 C 357.32 694.14 349.98 689.98 346.93 682.95 C 343.87 675.92 345.82 667.72 351.71 662.81 C 357.60 657.91 366.03 657.49 372.38 661.78 C 375.83 664.14 378.32 667.67 379.38 671.71 L 398.70 643.05 L 359.70 616.77 L 367.82 604.77 L 371.21 604.93 C 374.01 604.94 376.49 603.12 377.31 600.44 C 378.13 597.77 377.10 594.87 374.78 593.31 C 371.87 591.46 368.02 592.20 366.00 595.00 C 364.75 596.85 364.57 599.23 365.53 601.25 L 366.80 604.00 L 358.69 616.00 L 319.69 589.72 L 300.30 618.47 C 309.46 617.30 317.92 623.56 319.48 632.66 C 321.05 641.76 315.17 650.48 306.14 652.44 C 297.12 654.40 288.15 648.90 285.80 639.97 Z" fill="#262626" fill-rule="nonzero" node-id="78" stroke="none" target-height="162.5" target-width="162.44003" target-x="251.38" target-y="574.66"></path><path d="M 684.76 720.56 C 651.17 720.56 623.94 747.79 623.94 781.38 L 623.94 834.78 L 745.58 834.78 L 745.58 781.38 C 745.58 747.79 718.35 720.56 684.76 720.56 Z" fill="#333333" fill-rule="nonzero" node-id="80" stroke="none" target-height="114.22009" target-width="121.640076" target-x="623.94" target-y="720.55994"></path><path d="M 690.56 728.47 L 678.95 728.47 L 670.58 782.74 L 684.76 799.04 L 698.93 782.74 L 690.56 728.47 Z" fill="#ffffff" fill-rule="nonzero" node-id="82" stroke="none" target-height="70.57001" target-width="28.349976" target-x="670.58" target-y="728.47"></path><path d="M 695.98 720.56 L 673.53 720.56 L 677.46 733.22 L 692.06 733.22 L 695.98 720.56 Z" fill="#ffffff" fill-rule="nonzero" node-id="84" stroke="none" target-height="12.660034" target-width="22.449951" target-x="673.53" target-y="720.55994"></path><path d="M 745.58 840.22 L 623.94 840.22 C 622.50 840.22 621.11 839.65 620.09 838.63 C 619.07 837.61 618.50 836.22 618.50 834.78 L 618.50 781.38 C 618.50 744.79 648.17 715.12 684.76 715.12 C 721.35 715.12 751.02 744.79 751.02 781.38 L 751.02 834.78 C 751.02 837.78 748.58 840.22 745.58 840.22 Z M 629.38 829.34 L 740.13 829.34 L 740.13 781.34 C 739.72 751.05 715.05 726.70 684.75 726.70 C 654.46 726.70 629.79 751.05 629.38 781.34 Z" fill="#262626" fill-rule="nonzero" node-id="86" stroke="none" target-height="125.10266" target-width="132.5227" target-x="618.4973" target-y="715.12"></path><path d="M 740.16 691.19 C 736.83 688.73 732.45 688.19 728.63 689.78 L 723.24 685.78 L 751.24 647.91 L 713.47 619.91 L 717.47 614.52 C 722.75 615.03 727.71 611.95 729.61 607.00 C 731.51 602.05 729.88 596.44 725.62 593.29 C 721.36 590.14 715.51 590.21 711.34 593.47 C 707.16 596.73 705.67 602.38 707.69 607.28 L 703.69 612.67 L 665.92 584.67 L 637.87 622.54 L 643.26 626.54 C 648.16 624.52 653.81 626.01 657.07 630.19 C 660.33 634.37 660.40 640.21 657.25 644.47 C 654.10 648.73 648.49 650.36 643.54 648.46 C 638.59 646.56 635.51 641.60 636.02 636.32 L 630.63 632.32 L 602.79 670.00 L 640.59 698.00 L 644.59 692.61 C 642.56 687.71 644.05 682.05 648.24 678.78 C 652.42 675.52 658.27 675.45 662.53 678.61 C 666.80 681.77 668.43 687.38 666.53 692.34 C 664.62 697.29 659.64 700.36 654.36 699.85 L 650.36 705.24 L 688.09 733.24 L 716.00 695.55 L 721.40 699.55 C 720.86 705.22 724.45 710.47 729.93 712.03 C 735.41 713.58 741.22 710.99 743.74 705.88 C 746.25 700.76 744.75 694.58 740.17 691.19 Z" fill="#2ecc71" fill-rule="nonzero" node-id="88" stroke="none" target-height="148.56995" target-width="148.45001" target-x="602.79" target-y="584.67"></path><path d="M 688.10 738.66 C 686.93 738.66 685.80 738.29 684.86 737.59 L 647.13 709.59 C 644.72 707.80 644.22 704.41 646.00 702.00 L 650.00 696.61 C 651.13 695.07 652.99 694.24 654.89 694.43 C 657.73 694.71 660.41 693.05 661.44 690.38 C 662.46 687.72 661.59 684.69 659.29 682.99 C 656.44 680.97 652.51 681.56 650.38 684.32 C 649.05 686.12 648.76 688.48 649.63 690.54 C 650.36 692.30 650.11 694.32 648.97 695.85 L 644.97 701.24 C 644.11 702.40 642.83 703.17 641.40 703.38 C 639.97 703.59 638.52 703.23 637.36 702.37 L 599.55 674.37 C 597.14 672.58 596.63 669.17 598.42 666.75 L 626.32 629.09 C 627.18 627.93 628.46 627.16 629.89 626.95 C 631.32 626.74 632.77 627.10 633.93 627.96 L 639.32 631.96 C 640.85 633.10 641.68 634.95 641.50 636.85 C 641.26 639.07 642.21 641.26 644.00 642.60 C 646.84 644.62 650.77 644.03 652.90 641.27 C 654.99 638.44 654.39 634.46 651.57 632.37 C 649.77 631.06 647.41 630.78 645.35 631.62 C 643.59 632.34 641.57 632.09 640.04 630.96 L 634.65 626.96 C 633.49 626.10 632.72 624.82 632.51 623.39 C 632.30 621.96 632.66 620.51 633.52 619.35 L 661.57 581.48 C 662.43 580.32 663.71 579.55 665.14 579.34 C 666.57 579.13 668.02 579.49 669.18 580.35 L 701.41 604.22 C 701.06 600.05 702.24 595.90 704.74 592.54 C 708.00 588.15 713.15 585.55 718.62 585.54 C 722.31 585.53 725.91 586.72 728.87 588.93 C 734.32 592.96 736.91 599.80 735.48 606.43 C 734.05 613.05 728.87 618.22 722.24 619.64 L 754.49 643.53 C 755.65 644.39 756.42 645.67 756.63 647.10 C 756.84 648.53 756.48 649.98 755.62 651.14 L 731.62 683.49 C 737.90 683.01 743.95 686.00 747.38 691.28 C 750.82 696.57 751.09 703.31 748.11 708.85 C 745.12 714.40 739.34 717.88 733.04 717.92 L 733.04 717.92 C 724.92 717.92 717.91 712.25 716.19 704.32 L 692.39 736.45 C 691.53 737.61 690.25 738.38 688.82 738.59 C 688.58 738.63 688.34 738.65 688.10 738.66 Z M 659.10 704.98 L 687.00 725.60 L 711.66 692.31 C 712.52 691.15 713.80 690.38 715.23 690.17 C 716.66 689.96 718.11 690.32 719.27 691.18 L 724.67 695.18 C 726.20 696.31 727.03 698.16 726.85 700.06 C 726.62 702.28 727.58 704.46 729.38 705.79 C 732.22 707.81 736.15 707.22 738.28 704.46 C 740.37 701.64 739.78 697.66 736.96 695.56 C 735.16 694.25 732.80 693.97 730.74 694.81 C 728.98 695.54 726.96 695.29 725.43 694.15 L 720.04 690.15 C 718.88 689.29 718.10 688.01 717.89 686.58 C 717.68 685.15 718.04 683.70 718.90 682.54 L 743.68 649.00 L 710.28 624.27 C 709.12 623.41 708.35 622.13 708.14 620.70 C 707.93 619.27 708.29 617.82 709.15 616.66 L 713.15 611.27 C 714.28 609.73 716.14 608.90 718.04 609.09 C 720.88 609.37 723.56 607.71 724.59 605.04 C 725.61 602.38 724.74 599.35 722.44 597.65 C 719.60 595.63 715.67 596.22 713.54 598.98 C 712.21 600.78 711.92 603.14 712.79 605.20 C 713.51 606.96 713.26 608.98 712.13 610.51 L 708.13 615.90 C 707.27 617.06 705.99 617.83 704.56 618.04 C 703.13 618.25 701.68 617.89 700.52 617.03 L 667.13 592.29 L 646.41 620.29 C 653.16 619.73 659.61 623.16 662.91 629.08 C 666.20 634.99 665.73 642.29 661.70 647.73 C 658.44 652.12 653.30 654.71 647.83 654.73 C 639.73 654.71 632.73 649.06 631.00 641.14 L 610.45 668.89 L 638.33 689.55 C 637.98 685.38 639.17 681.22 641.67 677.87 C 645.82 672.26 652.94 669.70 659.72 671.39 C 666.49 673.08 671.57 678.69 672.59 685.60 C 673.95 694.61 668.04 703.12 659.13 705.00 Z" fill="#262626" fill-rule="nonzero" node-id="90" stroke="none" target-height="159.53381" target-width="160.2135" target-x="596.6295" target-y="579.12695"></path><path d="M 511.00 720.56 C 477.41 720.56 450.18 747.79 450.18 781.38 L 450.18 834.78 L 571.79 834.78 L 571.79 781.38 C 571.79 747.80 544.58 720.58 511.00 720.56 Z" fill="#333333" fill-rule="nonzero" node-id="92" stroke="none" target-height="114.22009" target-width="121.610016" target-x="450.17996" target-y="720.55994"></path><path d="M 516.77 728.47 L 505.15 728.47 L 496.79 782.74 L 510.97 799.04 L 525.14 782.74 L 516.77 728.47 Z" fill="#ffffff" fill-rule="nonzero" node-id="94" stroke="none" target-height="70.57001" target-width="28.350006" target-x="496.79" target-y="728.47"></path><path d="M 522.19 720.56 L 499.74 720.56 L 503.67 733.22 L 518.27 733.22 L 522.19 720.56 Z" fill="#ffffff" fill-rule="nonzero" node-id="96" stroke="none" target-height="12.660034" target-width="22.450012" target-x="499.74" target-y="720.55994"></path><path d="M 571.79 840.22 L 450.15 840.22 C 448.71 840.22 447.32 839.65 446.30 838.63 C 445.28 837.61 444.71 836.22 444.71 834.78 L 444.71 781.38 C 444.71 744.79 474.38 715.12 510.97 715.12 C 547.56 715.12 577.23 744.79 577.23 781.38 L 577.23 834.78 C 577.23 837.78 574.79 840.22 571.79 840.22 Z M 455.59 829.34 L 566.34 829.34 L 566.34 781.34 C 565.93 751.05 541.26 726.70 510.96 726.70 C 480.67 726.70 456.00 751.05 455.59 781.34 Z" fill="#262626" fill-rule="nonzero" node-id="98" stroke="none" target-height="125.10266" target-width="132.52264" target-x="444.70734" target-y="715.12"></path><path d="M 543.63 665.94 C 538.37 668.16 532.27 666.30 529.15 661.52 C 526.03 656.74 526.77 650.41 530.92 646.48 C 535.07 642.56 541.43 642.16 546.03 645.54 L 552.17 642.96 L 534.00 599.63 L 490.79 617.76 L 488.19 611.58 C 491.34 607.30 491.24 601.44 487.95 597.27 C 484.66 593.10 479.00 591.63 474.10 593.68 C 469.20 595.73 466.27 600.80 466.94 606.07 C 467.61 611.34 471.71 615.52 476.97 616.28 L 479.57 622.47 L 436.11 640.71 L 454.65 684.87 L 460.83 682.28 C 461.59 677.03 465.75 672.92 471.02 672.25 C 476.28 671.57 481.35 674.50 483.41 679.39 C 485.46 684.28 484.00 689.95 479.84 693.23 C 475.67 696.52 469.82 696.63 465.54 693.49 L 459.35 696.08 L 477.20 738.60 L 520.65 720.36 L 531.87 715.65 L 575.08 697.51 L 556.90 654.18 L 556.90 654.18 L 550.76 656.75 C 550.16 660.85 547.46 664.34 543.63 665.94 Z" fill="#f39c12" fill-rule="nonzero" node-id="100" stroke="none" target-height="146.97266" target-width="138.97006" target-x="436.10995" target-y="591.6273"></path><path d="M 477.18 744.00 C 475.00 743.98 473.03 742.67 472.18 740.66 L 454.34 698.15 C 453.78 696.82 453.77 695.32 454.32 693.99 C 454.86 692.65 455.92 691.59 457.25 691.03 L 463.43 688.43 C 465.19 687.70 467.21 687.93 468.75 689.05 C 471.23 690.86 474.65 690.64 476.88 688.53 C 479.11 686.41 479.51 683.01 477.83 680.44 C 476.15 677.87 472.87 676.86 470.04 678.05 C 467.97 678.92 466.52 680.82 466.22 683.05 C 465.95 684.94 464.70 686.54 462.94 687.28 L 456.75 689.88 C 453.98 691.04 450.79 689.74 449.63 686.97 L 431.10 642.80 C 430.54 641.47 430.53 639.97 431.08 638.64 C 431.62 637.30 432.68 636.24 434.01 635.68 L 471.11 620.11 C 462.80 616.06 459.16 606.18 462.85 597.70 C 466.54 589.23 476.26 585.17 484.88 588.49 C 493.51 591.82 497.98 601.35 495.03 610.11 L 531.90 594.64 C 533.23 594.08 534.73 594.07 536.06 594.62 C 537.40 595.16 538.46 596.22 539.02 597.55 L 557.21 640.88 C 558.37 643.65 557.07 646.84 554.30 648.01 L 548.15 650.59 C 546.39 651.32 544.38 651.09 542.84 649.96 C 541.04 648.65 538.68 648.37 536.62 649.22 C 533.38 650.58 531.85 654.31 533.21 657.55 C 534.61 660.75 538.31 662.26 541.55 660.96 C 543.62 660.09 545.07 658.18 545.37 655.96 C 545.65 654.08 546.89 652.47 548.65 651.74 L 554.79 649.16 C 557.56 648.00 560.75 649.30 561.92 652.07 L 580.10 695.41 C 580.66 696.74 580.67 698.24 580.12 699.57 C 579.58 700.91 578.52 701.97 577.19 702.53 L 479.30 743.62 C 478.63 743.89 477.90 744.02 477.18 744.00 Z M 467.00 700.31 L 480.08 731.47 L 567.93 694.60 L 554.53 662.68 C 550.46 670.96 540.60 674.57 532.14 670.88 C 523.68 667.20 519.62 657.51 522.92 648.89 C 526.22 640.28 535.71 635.78 544.47 638.68 L 531.06 606.68 L 492.86 622.68 C 490.09 623.84 486.90 622.54 485.74 619.77 L 483.14 613.58 C 482.40 611.82 482.64 609.81 483.76 608.27 C 485.09 606.48 485.38 604.11 484.51 602.05 C 483.11 598.85 479.42 597.34 476.18 598.64 C 473.54 599.75 471.97 602.48 472.33 605.31 C 472.70 608.15 474.91 610.39 477.74 610.80 C 479.62 611.08 481.23 612.32 481.96 614.08 L 484.56 620.26 C 485.72 623.03 484.42 626.22 481.65 627.39 L 443.21 643.52 L 457.00 676.41 C 460.36 669.52 467.87 665.68 475.42 666.97 C 482.98 668.27 488.77 674.40 489.64 682.02 C 490.51 689.64 486.25 696.91 479.18 699.88 C 475.31 701.50 470.98 701.65 467.00 700.31 Z" fill="#262626" fill-rule="nonzero" node-id="102" stroke="none" target-height="158.84943" target-width="150.13803" target-x="430.53098" target-y="585.16565"></path></svg>